<svg width="18" height="15" viewBox="0 0 18 15" fill="none" xmlns="http://www.w3.org/2000/svg">
<path fill-rule="evenodd" clip-rule="evenodd" d="M7.70994 0.292384C7.89994 0.492384 7.99994 0.742384 7.99994 1.00238C7.99994 1.26238 7.89994 1.51238 7.70994 1.71238L3.40994 6.00238L16.9999 6.00238C17.5499 6.00238 17.9999 6.45238 17.9999 7.00238C17.9999 7.55238 17.5499 8.00238 16.9999 8.00238L3.40994 8.00238L7.70994 12.2924C8.09994 12.6824 8.09994 13.3224 7.70994 13.7124C7.31994 14.1024 6.67994 14.1024 6.28994 13.7124L0.289942 7.71238C0.199942 7.62238 0.129942 7.51238 0.0799417 7.39238C0.0599417 7.34238 0.0399417 7.30238 0.0399417 7.25238C-0.0100583 7.09238 -0.0100583 6.91238 0.0399417 6.75238C0.0399417 6.70238 0.0599417 6.66238 0.0799417 6.61238C0.129942 6.49238 0.199942 6.38238 0.289942 6.29238L6.28994 0.292383C6.67994 -0.0976165 7.31994 -0.0976165 7.70994 0.292384" fill="#313037"/>
</svg>
