<svg width="88" height="56" viewBox="0 0 88 56" fill="none" xmlns="http://www.w3.org/2000/svg">
<rect width="88" height="56" rx="4" fill="#313037" fill-opacity="0.1"/>
<path d="M44 29C44.5523 29 45 28.5523 45 28C45 27.4477 44.5523 27 44 27C43.4477 27 43 27.4477 43 28C43 28.5523 43.4477 29 44 29Z" stroke="#313037" stroke-width="2" stroke-linecap="round" stroke-linejoin="round"/>
<path d="M51 29C51.5523 29 52 28.5523 52 28C52 27.4477 51.5523 27 51 27C50.4477 27 50 27.4477 50 28C50 28.5523 50.4477 29 51 29Z" stroke="#313037" stroke-width="2" stroke-linecap="round" stroke-linejoin="round"/>
<path d="M37 29C37.5523 29 38 28.5523 38 28C38 27.4477 37.5523 27 37 27C36.4477 27 36 27.4477 36 28C36 28.5523 36.4477 29 37 29Z" stroke="#313037" stroke-width="2" stroke-linecap="round" stroke-linejoin="round"/>
</svg>
